<svg class="js-quack-btn c-pointer" style="cursor: pointer;" width="56" height="49" xmlns="http://www.w3.org/2000/svg">
  <g fill="none">
    <path d="M8.9 12v-1.6C10 4.8 15 .6 20.7 1A11 11 0 0 1 31 12.8c.3 1.2 0 2.8-.7 4.4l-.6 2.7H40c2 0 3.2-.6 4.4-1.9a6.6 6.6 0 0 1 5-2.3c2 0 3.7 2 3.7 4.5v12.5A13.4 13.4 0 0 1 39.8 46h-25c-5.6 0-10.2-3.4-12.1-9a14 14 0 0 1 3.7-14.7l1.8-1.5-2.3-.7c-2.8-1-4.9-3.4-4.9-6V12h7.9z" fill="#FFF"></path>
    <path d="M52 18.8a4 4 0 0 1 4 4v13C56 43 50.2 49 43 49H16c-5.4 0-10.4-3.5-12.3-8.8a14 14 0 0 1 4-14.8L9.5 24v-.4L7.4 23A5.6 5.6 0 0 1 3 17.4V15h7.3v-1c1-6 6.2-10.3 12-9.9a11.4 11.4 0 0 1 9.4 16.2l-1 2.7h12.2c2.9 0 4.2-1.6 5.5-2.7.8-.6 1.9-1.5 3.6-1.5zm-35.5-8.4a2 2 0 1 0 0-4 2 2 0 0 0 0 4z" fill="#FFB935"></path>
    <path d="M2 14.3c0 2 1.8 4 4.3 5l3.9 1.2-1.4 1.2L7.1 23a13 13 0 0 0-3.5 13.7c1.8 5 6 8.2 11.2 8.2h25c6.8 0 12.3-5.5 12.3-12.3V20.2c0-2-1.3-3.4-2.7-3.4a5.7 5.7 0 0 0-4.3 1.9 6.2 6.2 0 0 1-5.1 2.2H28.4l.9-4a6 6 0 0 0 .7-3.8v-.3A10 10 0 0 0 20.6 2c-5.1-.3-9.9 3.4-10.7 8.6V13H2v1.3zm-.2 23.2a15 15 0 0 1 4-15.9l.3-.3-.5-.2C2.4 20 0 17.3 0 14.3V11h7.9v-.6A12.5 12.5 0 0 1 20.8 0 12 12 0 0 1 32 12.7a8 8 0 0 1-.8 4.9l-.3 1.3h9c1.8 0 2.8-.5 3.7-1.5a8 8 0 0 1 1.7-1.4 7.6 7.6 0 0 1 4.1-1.2c2.6 0 4.7 2.4 4.7 5.4v12.5A14.3 14.3 0 0 1 39.8 47h-25c-6 0-11-3.7-13-9.5z" fill="#F48024"></path>
    <path d="M46 27v2H34a7.8 7.8 0 0 0-7.6 8c0 4.4 3.4 8 7.6 8v2a9.8 9.8 0 0 1-9.6-10c0-5.5 4.3-10 9.6-10h12zM16.5 10a1.5 1.5 0 1 0 0-3 1.5 1.5 0 0 0 0 3zm0 2a3.5 3.5 0 1 1 0-7 3.5 3.5 0 0 1 0 7zm-8.6 0l2 .1c-.2 2.2.7 4.4 2.6 6.3a1.3 1.3 0 0 1-.7 2.3c-.9.2-2.6.7-3 1L7.7 20c.5-.4 1.7-.8 2.8-1.1a9.5 9.5 0 0 1-2.5-7z" fill="#F48024"></path>
  </g>
</svg>
